/* XPM */
static char *result[] = {
/* columns rows colors chars-per-pixel */
"32 32 77 1 ",
"  c black",
". c #010000",
"X c #202120",
"o c #212120",
"O c #212021",
"+ c #202121",
"@ c #202121",
"# c #2C2227",
"$ c #D68C77",
"% c #D78C77",
"& c #EB9486",
"* c #EB9587",
"= c #EDAF97",
"- c #F1B29E",
"; c #DBB1A6",
": c #DCB2AA",
"> c #DFB3AB",
", c #DEB5A8",
"< c #E6B4A0",
"1 c #E7B4A0",
"2 c #E6B4A1",
"3 c #E1B4AD",
"4 c #E0B8AA",
"5 c #E2BAAD",
"6 c #E2B8AF",
"7 c #FBD3B1",
"8 c #FBD2B2",
"9 c #FBD2B3",
"0 c #FDD5B4",
"q c #FDD4B5",
"w c #FCD5B5",
"e c #FDD5B5",
"r c #FCD7B6",
"t c #FED8B6",
"y c #EAC6C2",
"u c #FAF3E5",
"i c #FBF2E7",
"p c #FDF3E6",
"a c #F9F4E6",
"s c #F9F5E6",
"d c #F9F5E7",
"f c #FBF4E6",
"g c #FDF4E4",
"h c #FDF4E5",
"j c #FEF4E6",
"k c #FEF5E6",
"l c #FFF5E6",
"z c #FEF5E7",
"x c #FFF5E7",
"c c #FDF7E7",
"v c #FFF8E4",
"b c #FEF8E6",
"n c #FBF4E8",
"m c #FAF6E8",
"M c #F9F4EA",
"N c #FAF6EA",
"B c #FEF4E8",
"V c #FCF6E8",
"C c #FDF6E8",
"Z c #FDF6E9",
"A c #FDF6EB",
"S c #FEF7EB",
"D c #FAF5EC",
"F c #FCF6ED",
"G c #FEF7EC",
"H c #FEF7EE",
"J c #FDF9E8",
"K c #FDF9E9",
"L c #FDF8EA",
"P c #FDF9EA",
"I c #FDF8EB",
"U c #FDF9EE",
"Y c #FEF9EF",
"T c #FBF8F0",
"R c #FEF8F3",
"E c #FEF8F3",
"W c None",
/* pixels */
"WWWWWWWWWWWWWWWWWWWWWWWWWWWWWWWW",
"WWWWWWWWWWWWWWWWWWWWWWWWWWWWWWWW",
"WWWWWWWWWWWWWWWWWWWWWWWWWWWWWWWW",
"WWWWWWWWWWWWWWWWWWWWWWWWWWWWWWWW",
"WWWWWWWWW@@WWWWWWWWWW@XWWWWWWWWW",
"WWWWWWWWoe@@@O@@@@OO@0@WWWWWWWWW",
"WWWWWWWW@$q@e0<e<ee@e%%@WWWWWWWW",
"WWWWWWWW@%e@ee<e<ee@0%%@WWWWWWWW",
"WWWWWWWW@%e0ee<0<ee0ee%oWWWWWWWW",
"WWWWWWWWOeeeeeee<eqeee%@WWWWWWWW",
"WWWWWWWW@eeee98eeeqeewe@WWWWWWWW",
"WWWWWWW@eeweeweeeewqeee@WWWWWWWW",
"WWWWWWW@0eeE eeeeeE qee@WWWWWWWW",
"WWWWWWW#qe0. ee eq  rte@WWWWWWWW",
"WWWWWWW@q&&khg.k gkk&*7@WWWWWWWW",
"WWWWWWWW@&&kgggghkkk&&j@WWWWWWWW",
"WWWWWWWW@kkkkxkkzkkkkk@WWWWWWWWW",
"WWWWWWWWW@kBkkjjkkkkk@WWWWWWWWWW",
"WWWWWWWWWW+ylkkklkj5@WWWW@@@WWWW",
"WWWWWWWWWW@k63>:;,4k@WWW@1<1@WWW",
"WWWWWWWWWW@zklkkkjkk-@WWW+<<@WWW",
"WWWWWWWWWOkkkklkkkGk=<@WW@<<@WWW",
"WWWWWWWWW@zkkCZVZlkkk1@WW@v1@WWW",
"WWWWWWWWW@kkkkkkkkkck<@WW@J<+WWW",
"WWWWWWWWW@kkku@kklk<kk@+W@J<@WWW",
"WWWWWWWWW@kkkf@kkkm2zkKJ@@J<@WWW",
"WWWWWW@@+@<kkn@kIA@@@@<J@Jb<+WWW",
"WWWWW@Mdaa+kkD@lN@iTYU<JOJ<<@WWW",
"WWWWW@<Sss@kkFOkL+<jLP22J<<@WWWW",
"WWWWW@<<ssORkkokI@12pH<<<<@WWWWW",
"WWWWWW@1<s@2<<@kC@2<<<<@O+WWWWWW",
"WWWWWWW@@@@@oo@@@o@@@@OWWWWWWWWW"
};
